<svg width="684" height="41" viewBox="0 0 684 41" fill="none" xmlns="http://www.w3.org/2000/svg">
<g filter="url(#filter0_d_90_6642)">
<path d="M33.816 21.92V20.648L42.552 8.888H44.544V20.456H47.112V21.92H44.544V26H42.888V21.92H33.816ZM42.96 10.736L35.76 20.456H42.96V10.736ZM56.5028 26L53.1188 20.72L49.8548 26H48.0788L52.3028 19.448L48.1268 12.896H50.0228L53.3588 18.104L56.5988 12.896H58.3508L54.1748 19.376L58.3988 26H56.5028ZM71.7758 26.192C70.2718 26.192 69.0398 25.848 68.0798 25.16C67.1358 24.456 66.6078 23.504 66.4958 22.304H68.2238C68.3038 23.04 68.6478 23.64 69.2558 24.104C69.8798 24.552 70.7118 24.776 71.7518 24.776C72.6638 24.776 73.3758 24.56 73.8878 24.128C74.4158 23.696 74.6798 23.16 74.6798 22.52C74.6798 22.072 74.5358 21.704 74.2478 21.416C73.9598 21.128 73.5918 20.904 73.1438 20.744C72.7118 20.568 72.1198 20.384 71.3678 20.192C70.3918 19.936 69.5998 19.68 68.9918 19.424C68.3838 19.168 67.8638 18.792 67.4318 18.296C67.0158 17.784 66.8078 17.104 66.8078 16.256C66.8078 15.616 66.9998 15.024 67.3838 14.48C67.7678 13.936 68.3118 13.504 69.0158 13.184C69.7198 12.864 70.5198 12.704 71.4158 12.704C72.8238 12.704 73.9598 13.064 74.8238 13.784C75.6878 14.488 76.1518 15.464 76.2158 16.712H74.5358C74.4878 15.944 74.1838 15.328 73.6238 14.864C73.0798 14.384 72.3278 14.144 71.3678 14.144C70.5198 14.144 69.8318 14.344 69.3038 14.744C68.7758 15.144 68.5117 15.64 68.5117 16.232C68.5117 16.744 68.6638 17.168 68.9678 17.504C69.2878 17.824 69.6798 18.08 70.1438 18.272C70.6078 18.448 71.2318 18.648 72.0158 18.872C72.9598 19.128 73.7118 19.376 74.2718 19.616C74.8318 19.856 75.3118 20.208 75.7118 20.672C76.1118 21.136 76.3198 21.752 76.3358 22.52C76.3358 23.224 76.1438 23.856 75.7598 24.416C75.3758 24.96 74.8398 25.392 74.1518 25.712C73.4638 26.032 72.6718 26.192 71.7758 26.192ZM81.1541 15.776C81.5701 14.896 82.2261 14.168 83.1221 13.592C84.0341 13 85.1141 12.704 86.3621 12.704C87.5461 12.704 88.6101 12.984 89.5541 13.544C90.5141 14.088 91.2581 14.872 91.7861 15.896C92.3301 16.904 92.6021 18.08 92.6021 19.424C92.6021 20.768 92.3301 21.952 91.7861 22.976C91.2581 24 90.5141 24.792 89.5541 25.352C88.6101 25.912 87.5461 26.192 86.3621 26.192C85.1301 26.192 84.0581 25.904 83.1461 25.328C82.2341 24.736 81.5701 24 81.1541 23.12V32.192H79.4981V12.896H81.1541V15.776ZM90.8981 19.424C90.8981 18.336 90.6821 17.4 90.2501 16.616C89.8341 15.816 89.2581 15.208 88.5221 14.792C87.7861 14.376 86.9541 14.168 86.0261 14.168C85.1301 14.168 84.3061 14.384 83.5541 14.816C82.8181 15.248 82.2341 15.864 81.8021 16.664C81.3701 17.464 81.1541 18.392 81.1541 19.448C81.1541 20.504 81.3701 21.432 81.8021 22.232C82.2341 23.032 82.8181 23.648 83.5541 24.08C84.3061 24.512 85.1301 24.728 86.0261 24.728C86.9541 24.728 87.7861 24.52 88.5221 24.104C89.2581 23.672 89.8341 23.056 90.2501 22.256C90.6821 21.44 90.8981 20.496 90.8981 19.424ZM107.549 18.776C107.549 19.352 107.533 19.792 107.501 20.096H96.6294C96.6774 21.088 96.9174 21.936 97.3494 22.64C97.7814 23.344 98.3494 23.88 99.0534 24.248C99.7574 24.6 100.525 24.776 101.357 24.776C102.445 24.776 103.357 24.512 104.093 23.984C104.845 23.456 105.341 22.744 105.581 21.848H107.357C107.037 23.128 106.349 24.176 105.293 24.992C104.253 25.792 102.941 26.192 101.357 26.192C100.125 26.192 99.0214 25.92 98.0454 25.376C97.0694 24.816 96.3014 24.032 95.7414 23.024C95.1974 22 94.9254 20.808 94.9254 19.448C94.9254 18.088 95.1974 16.896 95.7414 15.872C96.2854 14.848 97.0454 14.064 98.0214 13.52C98.9974 12.976 100.109 12.704 101.357 12.704C102.605 12.704 103.693 12.976 104.621 13.52C105.565 14.064 106.285 14.8 106.781 15.728C107.293 16.64 107.549 17.656 107.549 18.776ZM105.845 18.728C105.861 17.752 105.661 16.92 105.245 16.232C104.845 15.544 104.293 15.024 103.589 14.672C102.885 14.32 102.117 14.144 101.285 14.144C100.037 14.144 98.9734 14.544 98.0934 15.344C97.2134 16.144 96.7254 17.272 96.6294 18.728H105.845ZM122.479 18.776C122.479 19.352 122.463 19.792 122.431 20.096H111.559C111.607 21.088 111.847 21.936 112.279 22.64C112.711 23.344 113.279 23.88 113.983 24.248C114.687 24.6 115.455 24.776 116.287 24.776C117.375 24.776 118.287 24.512 119.023 23.984C119.775 23.456 120.271 22.744 120.511 21.848H122.287C121.967 23.128 121.279 24.176 120.223 24.992C119.183 25.792 117.871 26.192 116.287 26.192C115.055 26.192 113.951 25.92 112.975 25.376C111.999 24.816 111.231 24.032 110.671 23.024C110.127 22 109.855 20.808 109.855 19.448C109.855 18.088 110.127 16.896 110.671 15.872C111.215 14.848 111.975 14.064 112.951 13.52C113.927 12.976 115.039 12.704 116.287 12.704C117.535 12.704 118.623 12.976 119.551 13.52C120.495 14.064 121.215 14.8 121.711 15.728C122.223 16.64 122.479 17.656 122.479 18.776ZM120.775 18.728C120.791 17.752 120.591 16.92 120.175 16.232C119.775 15.544 119.223 15.024 118.519 14.672C117.815 14.32 117.047 14.144 116.215 14.144C114.967 14.144 113.903 14.544 113.023 15.344C112.143 16.144 111.655 17.272 111.559 18.728H120.775ZM124.785 19.424C124.785 18.08 125.057 16.904 125.601 15.896C126.145 14.872 126.889 14.088 127.833 13.544C128.793 12.984 129.873 12.704 131.073 12.704C132.225 12.704 133.265 12.984 134.193 13.544C135.121 14.104 135.801 14.832 136.233 15.728V8.24H137.913V26H136.233V23.072C135.833 23.984 135.177 24.736 134.265 25.328C133.353 25.904 132.281 26.192 131.049 26.192C129.849 26.192 128.769 25.912 127.809 25.352C126.865 24.792 126.121 24 125.577 22.976C125.049 21.952 124.785 20.768 124.785 19.424ZM136.233 19.448C136.233 18.392 136.017 17.464 135.585 16.664C135.153 15.864 134.561 15.248 133.809 14.816C133.073 14.384 132.257 14.168 131.361 14.168C130.433 14.168 129.601 14.376 128.865 14.792C128.129 15.208 127.545 15.816 127.113 16.616C126.697 17.4 126.489 18.336 126.489 19.424C126.489 20.496 126.697 21.44 127.113 22.256C127.545 23.056 128.129 23.672 128.865 24.104C129.601 24.52 130.433 24.728 131.361 24.728C132.257 24.728 133.073 24.512 133.809 24.08C134.561 23.648 135.153 23.032 135.585 22.232C136.017 21.432 136.233 20.504 136.233 19.448Z" fill="#6F7F8F"/>
<path d="M9.1725 22.1624L5.7025 18.6924C5.3125 18.3024 4.6825 18.3024 4.2925 18.6924C3.9025 19.0824 3.9025 19.7124 4.2925 20.1024L8.4725 24.2824C8.8625 24.6724 9.4925 24.6724 9.8825 24.2824L20.4625 13.7024C20.8525 13.3124 20.8525 12.6824 20.4625 12.2924C20.0725 11.9024 19.4425 11.9024 19.0525 12.2924L9.1725 22.1624Z" fill="#06439C"/>
<path d="M200.528 9.224V19.784C200.528 21.448 200.92 22.68 201.704 23.48C202.504 24.28 203.592 24.68 204.968 24.68C206.344 24.68 207.416 24.288 208.184 23.504C208.968 22.704 209.36 21.464 209.36 19.784V9.224H211.04V19.76C211.04 21.888 210.472 23.488 209.336 24.56C208.216 25.632 206.752 26.168 204.944 26.168C203.136 26.168 201.664 25.632 200.528 24.56C199.408 23.488 198.848 21.888 198.848 19.76V9.224H200.528ZM220.931 12.656C222.499 12.656 223.779 13.144 224.771 14.12C225.763 15.08 226.259 16.48 226.259 18.32V26H224.603V18.512C224.603 17.088 224.243 16 223.523 15.248C222.819 14.496 221.851 14.12 220.619 14.12C219.355 14.12 218.347 14.52 217.595 15.32C216.843 16.12 216.467 17.296 216.467 18.848V26H214.787V12.896H216.467V15.128C216.883 14.328 217.483 13.72 218.267 13.304C219.051 12.872 219.939 12.656 220.931 12.656ZM231.631 15.8C232.063 14.888 232.727 14.144 233.623 13.568C234.535 12.992 235.607 12.704 236.839 12.704C238.039 12.704 239.111 12.984 240.055 13.544C240.999 14.088 241.735 14.872 242.263 15.896C242.807 16.904 243.079 18.08 243.079 19.424C243.079 20.768 242.807 21.952 242.263 22.976C241.735 24 240.991 24.792 240.031 25.352C239.087 25.912 238.023 26.192 236.839 26.192C235.591 26.192 234.511 25.912 233.599 25.352C232.703 24.776 232.047 24.032 231.631 23.12V26H229.975V8.24H231.631V15.8ZM241.375 19.424C241.375 18.336 241.159 17.4 240.727 16.616C240.311 15.816 239.735 15.208 238.999 14.792C238.263 14.376 237.431 14.168 236.503 14.168C235.607 14.168 234.783 14.384 234.031 14.816C233.295 15.248 232.711 15.864 232.279 16.664C231.847 17.464 231.631 18.392 231.631 19.448C231.631 20.504 231.847 21.432 232.279 22.232C232.711 23.032 233.295 23.648 234.031 24.08C234.783 24.512 235.607 24.728 236.503 24.728C237.431 24.728 238.263 24.52 238.999 24.104C239.735 23.672 240.311 23.056 240.727 22.256C241.159 21.44 241.375 20.496 241.375 19.424ZM247.85 15.224C248.218 14.408 248.778 13.776 249.53 13.328C250.298 12.88 251.234 12.656 252.338 12.656V14.408H251.882C250.666 14.408 249.69 14.736 248.954 15.392C248.218 16.048 247.85 17.144 247.85 18.68V26H246.17V12.896H247.85V15.224ZM266.721 18.776C266.721 19.352 266.705 19.792 266.673 20.096H255.801C255.849 21.088 256.089 21.936 256.521 22.64C256.953 23.344 257.521 23.88 258.225 24.248C258.929 24.6 259.697 24.776 260.529 24.776C261.617 24.776 262.529 24.512 263.265 23.984C264.017 23.456 264.513 22.744 264.753 21.848H266.529C266.209 23.128 265.521 24.176 264.465 24.992C263.425 25.792 262.113 26.192 260.529 26.192C259.297 26.192 258.193 25.92 257.217 25.376C256.241 24.816 255.473 24.032 254.913 23.024C254.369 22 254.097 20.808 254.097 19.448C254.097 18.088 254.369 16.896 254.913 15.872C255.457 14.848 256.217 14.064 257.193 13.52C258.169 12.976 259.281 12.704 260.529 12.704C261.777 12.704 262.865 12.976 263.793 13.52C264.737 14.064 265.457 14.8 265.953 15.728C266.465 16.64 266.721 17.656 266.721 18.776ZM265.017 18.728C265.033 17.752 264.833 16.92 264.417 16.232C264.017 15.544 263.465 15.024 262.761 14.672C262.057 14.32 261.289 14.144 260.457 14.144C259.209 14.144 258.145 14.544 257.265 15.344C256.385 16.144 255.897 17.272 255.801 18.728H265.017ZM269.027 19.424C269.027 18.08 269.291 16.904 269.819 15.896C270.363 14.872 271.107 14.088 272.051 13.544C273.011 12.984 274.091 12.704 275.291 12.704C276.539 12.704 277.611 12.992 278.507 13.568C279.419 14.144 280.075 14.88 280.475 15.776V12.896H282.155V26H280.475V23.096C280.059 23.992 279.395 24.736 278.483 25.328C277.587 25.904 276.515 26.192 275.267 26.192C274.083 26.192 273.011 25.912 272.051 25.352C271.107 24.792 270.363 24 269.819 22.976C269.291 21.952 269.027 20.768 269.027 19.424ZM280.475 19.448C280.475 18.392 280.259 17.464 279.827 16.664C279.395 15.864 278.803 15.248 278.051 14.816C277.315 14.384 276.499 14.168 275.603 14.168C274.675 14.168 273.843 14.376 273.107 14.792C272.371 15.208 271.787 15.816 271.355 16.616C270.939 17.4 270.731 18.336 270.731 19.424C270.731 20.496 270.939 21.44 271.355 22.256C271.787 23.056 272.371 23.672 273.107 24.104C273.843 24.52 274.675 24.728 275.603 24.728C276.499 24.728 277.315 24.512 278.051 24.08C278.803 23.648 279.395 23.032 279.827 22.232C280.259 21.432 280.475 20.504 280.475 19.448ZM293.07 26L287.67 20.12V26H285.99V8.24H287.67V18.752L292.95 12.896H295.302L289.086 19.424L295.35 26H293.07ZM296.754 19.424C296.754 18.08 297.018 16.904 297.546 15.896C298.09 14.872 298.834 14.088 299.778 13.544C300.738 12.984 301.818 12.704 303.018 12.704C304.266 12.704 305.338 12.992 306.234 13.568C307.146 14.144 307.802 14.88 308.202 15.776V12.896H309.882V26H308.202V23.096C307.786 23.992 307.122 24.736 306.21 25.328C305.314 25.904 304.242 26.192 302.994 26.192C301.81 26.192 300.738 25.912 299.778 25.352C298.834 24.792 298.09 24 297.546 22.976C297.018 21.952 296.754 20.768 296.754 19.424ZM308.202 19.448C308.202 18.392 307.986 17.464 307.554 16.664C307.122 15.864 306.53 15.248 305.778 14.816C305.042 14.384 304.226 14.168 303.33 14.168C302.402 14.168 301.57 14.376 300.834 14.792C300.098 15.208 299.514 15.816 299.082 16.616C298.666 17.4 298.458 18.336 298.458 19.424C298.458 20.496 298.666 21.44 299.082 22.256C299.514 23.056 300.098 23.672 300.834 24.104C301.57 24.52 302.402 24.728 303.33 24.728C304.226 24.728 305.042 24.512 305.778 24.08C306.53 23.648 307.122 23.032 307.554 22.232C307.986 21.432 308.202 20.504 308.202 19.448ZM315.373 15.8C315.805 14.888 316.469 14.144 317.365 13.568C318.277 12.992 319.349 12.704 320.581 12.704C321.781 12.704 322.853 12.984 323.797 13.544C324.741 14.088 325.477 14.872 326.005 15.896C326.549 16.904 326.821 18.08 326.821 19.424C326.821 20.768 326.549 21.952 326.005 22.976C325.477 24 324.733 24.792 323.773 25.352C322.829 25.912 321.765 26.192 320.581 26.192C319.333 26.192 318.253 25.912 317.341 25.352C316.445 24.776 315.789 24.032 315.373 23.12V26H313.717V8.24H315.373V15.8ZM325.117 19.424C325.117 18.336 324.901 17.4 324.469 16.616C324.053 15.816 323.477 15.208 322.741 14.792C322.005 14.376 321.173 14.168 320.245 14.168C319.349 14.168 318.525 14.384 317.773 14.816C317.037 15.248 316.453 15.864 316.021 16.664C315.589 17.464 315.373 18.392 315.373 19.448C315.373 20.504 315.589 21.432 316.021 22.232C316.453 23.032 317.037 23.648 317.773 24.08C318.525 24.512 319.349 24.728 320.245 24.728C321.173 24.728 322.005 24.52 322.741 24.104C323.477 23.672 324.053 23.056 324.469 22.256C324.901 21.44 325.117 20.496 325.117 19.424ZM331.592 8.24V26H329.912V8.24H331.592ZM347.253 18.776C347.253 19.352 347.237 19.792 347.205 20.096H336.333C336.381 21.088 336.621 21.936 337.053 22.64C337.485 23.344 338.053 23.88 338.757 24.248C339.461 24.6 340.229 24.776 341.061 24.776C342.149 24.776 343.061 24.512 343.797 23.984C344.549 23.456 345.045 22.744 345.285 21.848H347.061C346.741 23.128 346.053 24.176 344.997 24.992C343.957 25.792 342.645 26.192 341.061 26.192C339.829 26.192 338.725 25.92 337.749 25.376C336.773 24.816 336.005 24.032 335.445 23.024C334.901 22 334.629 20.808 334.629 19.448C334.629 18.088 334.901 16.896 335.445 15.872C335.989 14.848 336.749 14.064 337.725 13.52C338.701 12.976 339.813 12.704 341.061 12.704C342.309 12.704 343.397 12.976 344.325 13.52C345.269 14.064 345.989 14.8 346.485 15.728C346.997 16.64 347.253 17.656 347.253 18.776ZM345.549 18.728C345.565 17.752 345.365 16.92 344.949 16.232C344.549 15.544 343.997 15.024 343.293 14.672C342.589 14.32 341.821 14.144 340.989 14.144C339.741 14.144 338.677 14.544 337.797 15.344C336.917 16.144 336.429 17.272 336.333 18.728H345.549ZM362 26.168C360.896 26.168 359.92 25.976 359.072 25.592C358.24 25.208 357.584 24.672 357.104 23.984C356.624 23.296 356.368 22.528 356.336 21.68H358.112C358.192 22.496 358.552 23.216 359.192 23.84C359.832 24.448 360.768 24.752 362 24.752C363.136 24.752 364.032 24.464 364.688 23.888C365.36 23.296 365.696 22.552 365.696 21.656C365.696 20.936 365.512 20.36 365.144 19.928C364.776 19.48 364.32 19.152 363.776 18.944C363.232 18.72 362.48 18.48 361.52 18.224C360.4 17.92 359.512 17.624 358.856 17.336C358.2 17.048 357.64 16.6 357.176 15.992C356.712 15.384 356.48 14.56 356.48 13.52C356.48 12.656 356.704 11.888 357.152 11.216C357.6 10.528 358.232 9.992 359.048 9.608C359.864 9.224 360.8 9.032 361.856 9.032C363.408 9.032 364.656 9.416 365.6 10.184C366.56 10.936 367.112 11.912 367.256 13.112H365.432C365.32 12.424 364.944 11.816 364.304 11.288C363.664 10.744 362.8 10.472 361.712 10.472C360.704 10.472 359.864 10.744 359.192 11.288C358.52 11.816 358.184 12.544 358.184 13.472C358.184 14.176 358.368 14.744 358.736 15.176C359.104 15.608 359.56 15.936 360.104 16.16C360.664 16.384 361.416 16.624 362.36 16.88C363.448 17.184 364.328 17.488 365 17.792C365.672 18.08 366.24 18.528 366.704 19.136C367.168 19.744 367.4 20.56 367.4 21.584C367.4 22.368 367.192 23.112 366.776 23.816C366.36 24.52 365.744 25.088 364.928 25.52C364.112 25.952 363.136 26.168 362 26.168ZM382.503 18.776C382.503 19.352 382.487 19.792 382.455 20.096H371.583C371.631 21.088 371.871 21.936 372.303 22.64C372.735 23.344 373.303 23.88 374.007 24.248C374.711 24.6 375.479 24.776 376.311 24.776C377.399 24.776 378.311 24.512 379.047 23.984C379.799 23.456 380.295 22.744 380.535 21.848H382.311C381.991 23.128 381.303 24.176 380.247 24.992C379.207 25.792 377.895 26.192 376.311 26.192C375.079 26.192 373.975 25.92 372.999 25.376C372.023 24.816 371.255 24.032 370.695 23.024C370.151 22 369.879 20.808 369.879 19.448C369.879 18.088 370.151 16.896 370.695 15.872C371.239 14.848 371.999 14.064 372.975 13.52C373.951 12.976 375.063 12.704 376.311 12.704C377.559 12.704 378.647 12.976 379.575 13.52C380.519 14.064 381.239 14.8 381.735 15.728C382.247 16.64 382.503 17.656 382.503 18.776ZM380.799 18.728C380.815 17.752 380.615 16.92 380.199 16.232C379.799 15.544 379.247 15.024 378.543 14.672C377.839 14.32 377.071 14.144 376.239 14.144C374.991 14.144 373.927 14.544 373.047 15.344C372.167 16.144 371.679 17.272 371.583 18.728H380.799ZM384.808 19.448C384.808 18.088 385.08 16.904 385.624 15.896C386.168 14.872 386.92 14.088 387.88 13.544C388.84 12.984 389.936 12.704 391.168 12.704C392.784 12.704 394.112 13.104 395.152 13.904C396.208 14.704 396.888 15.792 397.192 17.168H395.392C395.168 16.224 394.68 15.488 393.928 14.96C393.192 14.416 392.272 14.144 391.168 14.144C390.288 14.144 389.496 14.344 388.792 14.744C388.088 15.144 387.528 15.744 387.112 16.544C386.712 17.328 386.512 18.296 386.512 19.448C386.512 20.6 386.712 21.576 387.112 22.376C387.528 23.176 388.088 23.776 388.792 24.176C389.496 24.576 390.288 24.776 391.168 24.776C392.272 24.776 393.192 24.512 393.928 23.984C394.68 23.44 395.168 22.688 395.392 21.728H397.192C396.888 23.072 396.208 24.152 395.152 24.968C394.096 25.784 392.768 26.192 391.168 26.192C389.936 26.192 388.84 25.92 387.88 25.376C386.92 24.816 386.168 24.032 385.624 23.024C385.08 22 384.808 20.808 384.808 19.448ZM411.647 12.896V26H409.967V23.696C409.583 24.512 408.991 25.136 408.191 25.568C407.391 26 406.495 26.216 405.503 26.216C403.935 26.216 402.655 25.736 401.663 24.776C400.671 23.8 400.175 22.392 400.175 20.552V12.896H401.831V20.36C401.831 21.784 402.183 22.872 402.887 23.624C403.607 24.376 404.583 24.752 405.815 24.752C407.079 24.752 408.087 24.352 408.839 23.552C409.591 22.752 409.967 21.576 409.967 20.024V12.896H411.647ZM417.163 15.224C417.531 14.408 418.091 13.776 418.843 13.328C419.611 12.88 420.547 12.656 421.651 12.656V14.408H421.195C419.979 14.408 419.003 14.736 418.267 15.392C417.531 16.048 417.163 17.144 417.163 18.68V26H415.483V12.896H417.163V15.224ZM425.018 10.424C424.682 10.424 424.394 10.304 424.154 10.064C423.914 9.824 423.794 9.528 423.794 9.176C423.794 8.824 423.914 8.536 424.154 8.312C424.394 8.072 424.682 7.952 425.018 7.952C425.354 7.952 425.642 8.072 425.882 8.312C426.122 8.536 426.242 8.824 426.242 9.176C426.242 9.528 426.122 9.824 425.882 10.064C425.642 10.304 425.354 10.424 425.018 10.424ZM425.858 12.896V26H424.178V12.896H425.858ZM431.846 14.312V22.448C431.846 23.248 431.998 23.8 432.302 24.104C432.606 24.408 433.142 24.56 433.91 24.56H435.446V26H433.646C432.462 26 431.582 25.728 431.006 25.184C430.43 24.624 430.142 23.712 430.142 22.448V14.312H428.318V12.896H430.142V9.608H431.846V12.896H435.446V14.312H431.846ZM449.017 12.896L441.241 32.168H439.489L442.033 25.928L436.657 12.896H438.505L442.969 24.08L447.289 12.896H449.017Z" fill="#6F7F8F"/>
<path d="M173.173 22.1624L169.703 18.6924C169.313 18.3024 168.683 18.3024 168.292 18.6924C167.903 19.0824 167.903 19.7124 168.292 20.1024L172.473 24.2824C172.863 24.6724 173.493 24.6724 173.883 24.2824L184.463 13.7024C184.853 13.3124 184.853 12.6824 184.463 12.2924C184.073 11.9024 183.442 11.9024 183.052 12.2924L173.173 22.1624Z" fill="#06439C"/>
<path d="M510.792 21.416C510.968 22.456 511.368 23.256 511.992 23.816C512.616 24.376 513.472 24.656 514.56 24.656C516.064 24.656 517.176 24.072 517.896 22.904C518.632 21.72 518.968 19.768 518.904 17.048C518.6 17.928 518.016 18.624 517.152 19.136C516.304 19.632 515.328 19.88 514.224 19.88C512.544 19.88 511.192 19.376 510.168 18.368C509.16 17.36 508.656 15.96 508.656 14.168C508.656 13.096 508.864 12.128 509.28 11.264C509.696 10.4 510.328 9.72 511.176 9.224C512.024 8.728 513.064 8.48 514.296 8.48C516.568 8.48 518.152 9.224 519.048 10.712C519.944 12.184 520.392 14.304 520.392 17.072C520.392 20.064 519.944 22.312 519.048 23.816C518.168 25.32 516.648 26.072 514.488 26.072C512.904 26.072 511.672 25.648 510.792 24.8C509.912 23.936 509.392 22.808 509.232 21.416H510.792ZM514.488 18.44C515.24 18.44 515.928 18.288 516.552 17.984C517.192 17.664 517.704 17.2 518.088 16.592C518.472 15.984 518.664 15.256 518.664 14.408C518.664 13.096 518.288 12.016 517.536 11.168C516.8 10.32 515.736 9.896 514.344 9.896C513.112 9.896 512.12 10.28 511.368 11.048C510.632 11.816 510.264 12.84 510.264 14.12C510.264 15.464 510.632 16.52 511.368 17.288C512.104 18.056 513.144 18.44 514.488 18.44ZM525.792 21.416C525.968 22.456 526.368 23.256 526.992 23.816C527.616 24.376 528.472 24.656 529.56 24.656C531.064 24.656 532.176 24.072 532.896 22.904C533.632 21.72 533.968 19.768 533.904 17.048C533.6 17.928 533.016 18.624 532.152 19.136C531.304 19.632 530.328 19.88 529.224 19.88C527.544 19.88 526.192 19.376 525.168 18.368C524.16 17.36 523.656 15.96 523.656 14.168C523.656 13.096 523.864 12.128 524.28 11.264C524.696 10.4 525.328 9.72 526.176 9.224C527.024 8.728 528.064 8.48 529.296 8.48C531.568 8.48 533.152 9.224 534.048 10.712C534.944 12.184 535.392 14.304 535.392 17.072C535.392 20.064 534.944 22.312 534.048 23.816C533.168 25.32 531.648 26.072 529.488 26.072C527.904 26.072 526.672 25.648 525.792 24.8C524.912 23.936 524.392 22.808 524.232 21.416H525.792ZM529.488 18.44C530.24 18.44 530.928 18.288 531.552 17.984C532.192 17.664 532.704 17.2 533.088 16.592C533.472 15.984 533.664 15.256 533.664 14.408C533.664 13.096 533.288 12.016 532.536 11.168C531.8 10.32 530.736 9.896 529.344 9.896C528.112 9.896 527.12 10.28 526.368 11.048C525.632 11.816 525.264 12.84 525.264 14.12C525.264 15.464 525.632 16.52 526.368 17.288C527.104 18.056 528.144 18.44 529.488 18.44ZM539.208 26.12C538.856 26.12 538.56 26 538.32 25.76C538.096 25.52 537.984 25.224 537.984 24.872C537.984 24.52 538.096 24.232 538.32 24.008C538.56 23.768 538.856 23.648 539.208 23.648C539.544 23.648 539.824 23.768 540.048 24.008C540.288 24.232 540.408 24.52 540.408 24.872C540.408 25.224 540.288 25.52 540.048 25.76C539.824 26 539.544 26.12 539.208 26.12ZM545.151 21.416C545.327 22.456 545.727 23.256 546.351 23.816C546.975 24.376 547.831 24.656 548.919 24.656C550.423 24.656 551.535 24.072 552.255 22.904C552.991 21.72 553.327 19.768 553.263 17.048C552.959 17.928 552.375 18.624 551.511 19.136C550.663 19.632 549.687 19.88 548.583 19.88C546.903 19.88 545.551 19.376 544.527 18.368C543.519 17.36 543.015 15.96 543.015 14.168C543.015 13.096 543.223 12.128 543.639 11.264C544.055 10.4 544.687 9.72 545.535 9.224C546.383 8.728 547.423 8.48 548.655 8.48C550.927 8.48 552.511 9.224 553.407 10.712C554.303 12.184 554.751 14.304 554.751 17.072C554.751 20.064 554.303 22.312 553.407 23.816C552.527 25.32 551.007 26.072 548.847 26.072C547.263 26.072 546.031 25.648 545.151 24.8C544.271 23.936 543.751 22.808 543.591 21.416H545.151ZM548.847 18.44C549.599 18.44 550.287 18.288 550.911 17.984C551.551 17.664 552.063 17.2 552.447 16.592C552.831 15.984 553.023 15.256 553.023 14.408C553.023 13.096 552.647 12.016 551.895 11.168C551.159 10.32 550.095 9.896 548.703 9.896C547.471 9.896 546.479 10.28 545.727 11.048C544.991 11.816 544.623 12.84 544.623 14.12C544.623 15.464 544.991 16.52 545.727 17.288C546.463 18.056 547.503 18.44 548.847 18.44ZM560.151 21.416C560.327 22.456 560.727 23.256 561.351 23.816C561.975 24.376 562.831 24.656 563.919 24.656C565.423 24.656 566.535 24.072 567.255 22.904C567.991 21.72 568.327 19.768 568.263 17.048C567.959 17.928 567.375 18.624 566.511 19.136C565.663 19.632 564.687 19.88 563.583 19.88C561.903 19.88 560.551 19.376 559.527 18.368C558.519 17.36 558.015 15.96 558.015 14.168C558.015 13.096 558.223 12.128 558.639 11.264C559.055 10.4 559.687 9.72 560.535 9.224C561.383 8.728 562.423 8.48 563.655 8.48C565.927 8.48 567.511 9.224 568.407 10.712C569.303 12.184 569.751 14.304 569.751 17.072C569.751 20.064 569.303 22.312 568.407 23.816C567.527 25.32 566.007 26.072 563.847 26.072C562.263 26.072 561.031 25.648 560.151 24.8C559.271 23.936 558.751 22.808 558.591 21.416H560.151ZM563.847 18.44C564.599 18.44 565.287 18.288 565.911 17.984C566.551 17.664 567.063 17.2 567.447 16.592C567.831 15.984 568.023 15.256 568.023 14.408C568.023 13.096 567.647 12.016 566.895 11.168C566.159 10.32 565.095 9.896 563.703 9.896C562.471 9.896 561.479 10.28 560.727 11.048C559.991 11.816 559.623 12.84 559.623 14.12C559.623 15.464 559.991 16.52 560.727 17.288C561.463 18.056 562.503 18.44 563.847 18.44ZM572.391 12.392C572.391 11.368 572.703 10.544 573.327 9.92C573.967 9.28 574.775 8.96 575.751 8.96C576.743 8.96 577.551 9.28 578.175 9.92C578.815 10.544 579.135 11.368 579.135 12.392C579.135 13.432 578.815 14.272 578.175 14.912C577.551 15.536 576.743 15.848 575.751 15.848C574.775 15.848 573.967 15.536 573.327 14.912C572.703 14.272 572.391 13.432 572.391 12.392ZM585.831 9.2L575.991 26H574.287L584.151 9.2H585.831ZM575.751 10.04C575.143 10.04 574.655 10.248 574.287 10.664C573.935 11.064 573.759 11.64 573.759 12.392C573.759 13.144 573.935 13.728 574.287 14.144C574.655 14.56 575.143 14.768 575.751 14.768C576.359 14.768 576.847 14.56 577.215 14.144C577.583 13.728 577.767 13.144 577.767 12.392C577.767 11.656 577.583 11.08 577.215 10.664C576.847 10.248 576.359 10.04 575.751 10.04ZM581.031 22.808C581.031 21.768 581.343 20.936 581.967 20.312C582.607 19.672 583.415 19.352 584.391 19.352C585.367 19.352 586.167 19.672 586.791 20.312C587.431 20.936 587.751 21.768 587.751 22.808C587.751 23.848 587.431 24.688 586.791 25.328C586.167 25.952 585.367 26.264 584.391 26.264C583.415 26.264 582.607 25.952 581.967 25.328C581.343 24.688 581.031 23.848 581.031 22.808ZM584.391 20.456C583.783 20.456 583.295 20.664 582.927 21.08C582.559 21.496 582.375 22.072 582.375 22.808C582.375 23.544 582.559 24.12 582.927 24.536C583.295 24.952 583.783 25.16 584.391 25.16C584.999 25.16 585.479 24.96 585.831 24.56C586.199 24.144 586.383 23.56 586.383 22.808C586.383 22.056 586.199 21.48 585.831 21.08C585.479 20.664 584.999 20.456 584.391 20.456ZM598.887 9.224V19.784C598.887 21.448 599.279 22.68 600.063 23.48C600.863 24.28 601.951 24.68 603.327 24.68C604.703 24.68 605.775 24.288 606.543 23.504C607.327 22.704 607.719 21.464 607.719 19.784V9.224H609.399V19.76C609.399 21.888 608.831 23.488 607.695 24.56C606.575 25.632 605.111 26.168 603.303 26.168C601.495 26.168 600.023 25.632 598.887 24.56C597.767 23.488 597.207 21.888 597.207 19.76V9.224H598.887ZM614.803 15.776C615.219 14.896 615.875 14.168 616.771 13.592C617.683 13 618.763 12.704 620.011 12.704C621.195 12.704 622.259 12.984 623.203 13.544C624.163 14.088 624.907 14.872 625.435 15.896C625.979 16.904 626.251 18.08 626.251 19.424C626.251 20.768 625.979 21.952 625.435 22.976C624.907 24 624.163 24.792 623.203 25.352C622.259 25.912 621.195 26.192 620.011 26.192C618.779 26.192 617.707 25.904 616.795 25.328C615.883 24.736 615.219 24 614.803 23.12V32.192H613.147V12.896H614.803V15.776ZM624.547 19.424C624.547 18.336 624.331 17.4 623.899 16.616C623.483 15.816 622.907 15.208 622.171 14.792C621.435 14.376 620.603 14.168 619.675 14.168C618.779 14.168 617.955 14.384 617.203 14.816C616.467 15.248 615.883 15.864 615.451 16.664C615.019 17.464 614.803 18.392 614.803 19.448C614.803 20.504 615.019 21.432 615.451 22.232C615.883 23.032 616.467 23.648 617.203 24.08C617.955 24.512 618.779 24.728 619.675 24.728C620.603 24.728 621.435 24.52 622.171 24.104C622.907 23.672 623.483 23.056 623.899 22.256C624.331 21.44 624.547 20.496 624.547 19.424ZM631.526 14.312V22.448C631.526 23.248 631.678 23.8 631.982 24.104C632.286 24.408 632.822 24.56 633.59 24.56H635.126V26H633.326C632.142 26 631.262 25.728 630.686 25.184C630.11 24.624 629.822 23.712 629.822 22.448V14.312H627.998V12.896H629.822V9.608H631.526V12.896H635.126V14.312H631.526ZM638.737 10.424C638.401 10.424 638.113 10.304 637.873 10.064C637.633 9.824 637.513 9.528 637.513 9.176C637.513 8.824 637.633 8.536 637.873 8.312C638.113 8.072 638.401 7.952 638.737 7.952C639.073 7.952 639.361 8.072 639.601 8.312C639.841 8.536 639.961 8.824 639.961 9.176C639.961 9.528 639.841 9.824 639.601 10.064C639.361 10.304 639.073 10.424 638.737 10.424ZM639.577 12.896V26H637.897V12.896H639.577ZM658.981 12.656C660.517 12.656 661.765 13.144 662.725 14.12C663.701 15.08 664.189 16.48 664.189 18.32V26H662.533V18.512C662.533 17.088 662.189 16 661.501 15.248C660.813 14.496 659.877 14.12 658.693 14.12C657.461 14.12 656.477 14.528 655.741 15.344C655.005 16.16 654.637 17.344 654.637 18.896V26H652.981V18.512C652.981 17.088 652.637 16 651.949 15.248C651.261 14.496 650.317 14.12 649.117 14.12C647.885 14.12 646.901 14.528 646.165 15.344C645.429 16.16 645.061 17.344 645.061 18.896V26H643.381V12.896H645.061V15.152C645.477 14.336 646.069 13.72 646.837 13.304C647.605 12.872 648.461 12.656 649.405 12.656C650.541 12.656 651.533 12.928 652.381 13.472C653.245 14.016 653.869 14.816 654.253 15.872C654.605 14.832 655.205 14.04 656.053 13.496C656.917 12.936 657.893 12.656 658.981 12.656ZM679.776 18.776C679.776 19.352 679.76 19.792 679.728 20.096H668.856C668.904 21.088 669.144 21.936 669.576 22.64C670.008 23.344 670.576 23.88 671.28 24.248C671.984 24.6 672.752 24.776 673.584 24.776C674.672 24.776 675.584 24.512 676.32 23.984C677.072 23.456 677.568 22.744 677.808 21.848H679.584C679.264 23.128 678.576 24.176 677.52 24.992C676.48 25.792 675.168 26.192 673.584 26.192C672.352 26.192 671.248 25.92 670.272 25.376C669.296 24.816 668.528 24.032 667.968 23.024C667.424 22 667.152 20.808 667.152 19.448C667.152 18.088 667.424 16.896 667.968 15.872C668.512 14.848 669.272 14.064 670.248 13.52C671.224 12.976 672.336 12.704 673.584 12.704C674.832 12.704 675.92 12.976 676.848 13.52C677.792 14.064 678.512 14.8 679.008 15.728C679.52 16.64 679.776 17.656 679.776 18.776ZM678.072 18.728C678.088 17.752 677.888 16.92 677.472 16.232C677.072 15.544 676.52 15.024 675.816 14.672C675.112 14.32 674.344 14.144 673.512 14.144C672.264 14.144 671.2 14.544 670.32 15.344C669.44 16.144 668.952 17.272 668.856 18.728H678.072Z" fill="#6F7F8F"/>
<path d="M483.173 22.1624L479.703 18.6924C479.313 18.3024 478.683 18.3024 478.292 18.6924C477.903 19.0824 477.903 19.7124 478.292 20.1024L482.473 24.2824C482.863 24.6724 483.493 24.6724 483.883 24.2824L494.463 13.7024C494.853 13.3124 494.853 12.6824 494.463 12.2924C494.073 11.9024 493.442 11.9024 493.052 12.2924L483.173 22.1624Z" fill="#06439C"/>
</g>
<defs>
<filter id="filter0_d_90_6642" x="0" y="7.95203" width="683.776" height="32.24" filterUnits="userSpaceOnUse" color-interpolation-filters="sRGB">
<feFlood flood-opacity="0" result="BackgroundImageFix"/>
<feColorMatrix in="SourceAlpha" type="matrix" values="0 0 0 0 0 0 0 0 0 0 0 0 0 0 0 0 0 0 127 0" result="hardAlpha"/>
<feOffset dy="4"/>
<feGaussianBlur stdDeviation="2"/>
<feComposite in2="hardAlpha" operator="out"/>
<feColorMatrix type="matrix" values="0 0 0 0 0 0 0 0 0 0 0 0 0 0 0 0 0 0 0.25 0"/>
<feBlend mode="normal" in2="BackgroundImageFix" result="effect1_dropShadow_90_6642"/>
<feBlend mode="normal" in="SourceGraphic" in2="effect1_dropShadow_90_6642" result="shape"/>
</filter>
</defs>
</svg>
