<?xml version="1.0" encoding="UTF-8"?>
<svg version="1.1" xmlns="http://www.w3.org/2000/svg" width="60" height="60">
<path d="M0 0 C4.19525783 2.15892327 6.42121999 5.13182998 9 9 C9.65032054 14.66383817 9.89321913 20.10637544 7.4375 25.3125 C6.2309375 26.6428125 6.2309375 26.6428125 5 28 C3.80842328 29.3296913 2.62121481 30.66330509 1.4375 32 C0.83679688 32.6703125 0.23609375 33.340625 -0.3828125 34.03125 C-2.45665023 36.55592201 -3.72653697 39.00361639 -5 42 C-6.32 42 -7.64 42 -9 42 C-9.495 40.845 -9.99 39.69 -10.5 38.5 C-12.66782245 34.10197172 -15.60012838 31.14252427 -19.1953125 27.859375 C-23.69468906 23.2236537 -23.53402035 18.44005578 -23.45703125 12.2109375 C-22.78012499 7.45523708 -20.69594953 4.92258783 -17 2 C-11.89306341 -1.40462439 -5.94520877 -0.78332143 0 0 Z M-9 13 C-9.33 14.65 -9.66 16.3 -10 18 C-7.525 18.495 -7.525 18.495 -5 19 C-4.67 17.35 -4.34 15.7 -4 14 C-5.65 13.67 -7.3 13.34 -9 13 Z " fill="#D8D8D8" transform="translate(37,4)"/>
<path d="M0 0 C2.05078125 0.03255208 4.1015625 0.06510417 6.15234375 0.09765625 C6.15234375 0.75765625 6.15234375 1.41765625 6.15234375 2.09765625 C6.81234375 2.09765625 7.47234375 2.09765625 8.15234375 2.09765625 C8.15234375 2.75765625 8.15234375 3.41765625 8.15234375 4.09765625 C6.17234375 4.09765625 4.19234375 4.09765625 2.15234375 4.09765625 C1.94738281 4.79632813 1.74242187 5.495 1.53125 6.21484375 C1.26183594 7.12492187 0.99242187 8.035 0.71484375 8.97265625 C0.31458984 10.33003906 0.31458984 10.33003906 -0.09375 11.71484375 C-0.84765625 14.09765625 -0.84765625 14.09765625 -1.84765625 16.09765625 C11.35234375 16.09765625 24.55234375 16.09765625 38.15234375 16.09765625 C36.83234375 12.79765625 35.51234375 9.49765625 34.15234375 6.09765625 C34.15234375 5.43765625 34.15234375 4.77765625 34.15234375 4.09765625 C32.17234375 4.09765625 30.19234375 4.09765625 28.15234375 4.09765625 C28.15234375 3.43765625 28.15234375 2.77765625 28.15234375 2.09765625 C28.81234375 2.09765625 29.47234375 2.09765625 30.15234375 2.09765625 C30.15234375 1.43765625 30.15234375 0.77765625 30.15234375 0.09765625 C32.79234375 0.09765625 35.43234375 0.09765625 38.15234375 0.09765625 C41.72854066 6.93756684 44.15234375 12.19060535 44.15234375 20.09765625 C26.99234375 20.09765625 9.83234375 20.09765625 -7.84765625 20.09765625 C-7.84765625 14.62656215 -7.37967664 12.1671119 -5.41015625 7.28515625 C-4.95769531 6.14433594 -4.50523437 5.00351562 -4.0390625 3.828125 C-2.42462481 0.12815142 -2.42462481 0.12815142 0 0 Z " fill="#D8D8D8" transform="translate(11.84765625,33.90234375)"/>
</svg>
