<?xml version="1.0" encoding="UTF-8"?>
<svg version="1.1" xmlns="http://www.w3.org/2000/svg" width="60" height="60">
<path d="M0 0 C2.59486134 3.05719744 4.59057237 6.24335437 6 10 C5.72229442 12.58539981 5.15743336 14.62215993 4.16015625 17.015625 C3.75345309 19.24027345 3.75345309 19.24027345 5.87109375 21.359375 C6.71800781 22.14828125 7.56492187 22.9371875 8.4375 23.75 C9.28183594 24.54921875 10.12617188 25.3484375 10.99609375 26.171875 C11.65738281 26.77515625 12.31867187 27.3784375 13 28 C13.76699219 27.66871094 14.53398438 27.33742188 15.32421875 26.99609375 C19.44198486 25.46320272 22.21059448 26.19104633 26.16015625 27.9765625 C28.33975649 29.16823106 30.17244487 30.31648862 32 32 C32.89255334 35.64459282 32.48198489 37.12783686 30.6875 40.375 C26.26248245 43.05059201 22.01519926 42.88141785 17 42 C13.55106497 40.49180234 10.87120977 38.41340856 8 36 C7.16339844 35.32324219 6.32679687 34.64648438 5.46484375 33.94921875 C-0.63135489 28.77250708 -9.41751653 21.0158129 -10.23828125 12.5390625 C-10.4373423 4.72329689 -10.4373423 4.72329689 -8.375 1.3125 C-5.03378094 -0.53396316 -3.7468883 -1.04912873 0 0 Z " fill="#D9D9D9" transform="translate(18,10)"/>
<path d="M0 0 C2.0625 -0.4375 2.0625 -0.4375 5 0 C8.80171582 2.70990074 11.55646266 5.47930055 12.875 10 C11.55646266 14.52069945 8.80171582 17.29009926 5 20 C2.0625 20.4375 2.0625 20.4375 0 20 C-0.33 19.01 -0.66 18.02 -1 17 C-0.01 15.68 0.98 14.36 2 13 C-3.28 12.67 -8.56 12.34 -14 12 C-14.33 11.01 -14.66 10.02 -15 9 C-12.94077598 6.94077598 -8.78291876 7.58572421 -5.9375 7.4375 C-5.17888672 7.39431641 -4.42027344 7.35113281 -3.63867188 7.30664062 C-1.75934562 7.20026367 0.12030244 7.09960066 2 7 C1.34 6.34 0.68 5.68 0 5 C-0.125 2.375 -0.125 2.375 0 0 Z " fill="#D6D6D6" transform="translate(44,6)"/>
</svg>
