<?xml version="1.0" encoding="UTF-8"?>
<svg version="1.1" xmlns="http://www.w3.org/2000/svg" width="544" height="240">
<path d="M0 0 C0 0.66 0 1.32 0 2 C1.32 2.66 2.64 3.32 4 4 C3.57847656 4.6290625 3.15695313 5.258125 2.72265625 5.90625 C-2.13764453 13.38014702 -2.13764453 13.38014702 -3 22 C-1.76400308 27.54919996 -0.00269397 31.82114375 4.8125 35.0625 C9.11142825 37.29539989 13.09319077 38.65749256 17.96875 37.5546875 C22.96358923 35.88333745 26.8498391 33.19908236 31 30 C31.21914062 30.60328125 31.43828125 31.2065625 31.6640625 31.828125 C33.26231419 35.85623901 34.57725935 38.59647483 37.75 41.625 C43.10907915 43.89230272 47.49271722 42.40741671 53 41 C53.6509259 42.24735567 54.29551669 43.49801832 54.9375 44.75 C55.29714844 45.44609375 55.65679687 46.1421875 56.02734375 46.859375 C59.73699713 55.02359208 59.20932054 66.61464504 56.375 75 C51.90145899 85.46965562 44.56035821 92.84048864 34.11328125 97.23828125 C30.28540274 98.61801565 26.95493498 99.12776738 22.87875366 99.14717102 C21.32715042 99.15790398 21.32715042 99.15790398 19.74420166 99.16885376 C18.61480164 99.17154266 17.48540161 99.17423157 16.32177734 99.17700195 C14.53083145 99.18685875 14.53083145 99.18685875 12.70370483 99.19691467 C8.74778887 99.2166435 4.7918862 99.22831499 0.8359375 99.23828125 C-0.52960607 99.24233105 -1.89514943 99.24644804 -3.2606926 99.25063133 C-9.67967405 99.26967536 -16.09864408 99.28390611 -22.51764834 99.2922433 C-29.90828989 99.30200278 -37.29863092 99.3282915 -44.68916667 99.36874419 C-50.41335023 99.39899201 -56.13744808 99.41372048 -61.86170995 99.41702431 C-65.27483119 99.41936561 -68.68763111 99.42820417 -72.10066605 99.45348549 C-75.9158224 99.47788906 -79.73019929 99.47690884 -83.54541016 99.4699707 C-85.22129211 99.48918579 -85.22129211 99.48918579 -86.93103027 99.50878906 C-95.63848432 99.45127764 -103.85053791 97.73082333 -110.375 91.5625 C-110.98085937 91.00691406 -111.58671875 90.45132813 -112.2109375 89.87890625 C-118.72269197 83.04014228 -122.08062875 74.84606054 -122.4375 65.3125 C-121.89341094 55.71196074 -118.12220014 46.9459524 -111.18359375 40.24609375 C-104.43871551 34.80931311 -96.7418975 31.239835 -88 32 C-87.835 30.783125 -87.67 29.56625 -87.5 28.3125 C-84.37166072 14.08868399 -72.77548745 2.59475542 -61 -5 C-42.20444031 -14.34542453 -16.75594667 -13.23833259 0 0 Z " fill="#FFFFFF" transform="translate(145,76)"/>
<path d="M0 0 C3.50625 -0.0825 7.0125 -0.165 10.625 -0.25 C11.71893066 -0.28641602 12.81286133 -0.32283203 13.93994141 -0.36035156 C19.99621177 -0.42923594 23.3730677 0.00606821 28 4 C28.86625 4.680625 28.86625 4.680625 29.75 5.375 C33.66616503 10.46601454 33.6125806 16.87419403 33 23 C31.25923372 28.89926349 28.82977202 31.50612237 24 35 C21.49502996 36.25248502 19.79146726 36.11374406 16.9921875 36.09765625 C16.1038623 36.09515869 15.21553711 36.09266113 14.30029297 36.09008789 C13.16994629 36.08098389 12.03959961 36.07187988 10.875 36.0625 C5.491875 36.0315625 5.491875 36.0315625 0 36 C0 24.12 0 12.24 0 0 Z M12 9 C12 14.94 12 20.88 12 27 C16.64655412 27.44499416 16.64655412 27.44499416 18.78125 25.875 C20.50916261 23.21667292 20.46912458 21.14929261 20.5 18 C20.5309375 16.948125 20.561875 15.89625 20.59375 14.8125 C20.2707704 11.80982403 20.2707704 11.80982403 17.65625 10.125 C15.02036858 8.80500332 15.02036858 8.80500332 12 9 Z " fill="#FFFFFF" transform="translate(401,121)"/>
<path d="M0 0 C1.54300781 -0.03867188 1.54300781 -0.03867188 3.1171875 -0.078125 C7.80374565 0.43313589 10.31218281 2.32429153 13.375 5.8125 C17.0697747 10.95879334 16.7079028 16.06475358 16.125 22.25 C13.79051393 27.09189704 10.34243545 30.96302582 5.25 33 C-1.48224088 33.79202834 -6.31443934 33.20283334 -11.875 29.25 C-16.07159702 23.97735246 -17.32201486 19.95522285 -16.875 13.25 C-15.17451968 8.05906008 -13.03833079 4.78883118 -8.875 1.25 C-5.71490467 0.19663489 -3.3196864 0.04967112 0 0 Z " fill="#FFFFFF" transform="translate(159.875,79.75)"/>
<path d="M0 0 C0.75539062 -0.01611328 1.51078125 -0.03222656 2.2890625 -0.04882812 C6.88879744 -0.05284887 9.89720023 0.33587646 13.625 3.3125 C16.27923853 7.431146 16.9727436 10.44408965 16.625 15.3125 C12.995 15.3125 9.365 15.3125 5.625 15.3125 C5.295 13.6625 4.965 12.0125 4.625 10.3125 C2.315 10.3125 0.005 10.3125 -2.375 10.3125 C-3.74038938 13.04327876 -3.50731826 15.26810367 -3.5 18.3125 C-3.50257813 19.385 -3.50515625 20.4575 -3.5078125 21.5625 C-3.5622341 24.27432052 -3.5622341 24.27432052 -2.375 26.3125 C-0.395 26.3125 1.585 26.3125 3.625 26.3125 C4.285 24.6625 4.945 23.0125 5.625 21.3125 C9.255 21.3125 12.885 21.3125 16.625 21.3125 C17.13037432 26.61893041 15.93155751 29.17930312 12.625 33.3125 C7.91898832 37.44808602 3.47508505 37.6577618 -2.58203125 37.59375 C-7.74159164 37.07418588 -10.76332845 34.82490193 -14.53125 31.2890625 C-17.18282759 27.00833766 -16.99866285 23.31479966 -16.9375 18.375 C-16.96134766 17.49392578 -16.98519531 16.61285156 -17.00976562 15.70507812 C-16.9999756 11.34851534 -16.82610872 8.27157932 -14.02734375 4.80859375 C-9.34647442 0.40347519 -6.1936302 -0.02615553 0 0 Z " fill="#FFFFFF" transform="translate(229.375,120.6875)"/>
<path d="M0 0 C3.96 0 7.92 0 12 0 C12 12.54 12 25.08 12 38 C8 38 4 38 0 38 C-0.33 38.33 -0.66 38.66 -1 39 C-5.9751068 39.38270052 -9.06372795 39.17088582 -13 36 C-16.5786181 31.52672737 -17.35120165 26.46093259 -16.78515625 20.8828125 C-15.81776027 15.99976614 -14.20568103 12.92569115 -10 10 C-6.50707381 9.42343253 -3.23058531 9.38470734 0 11 C0 7.37 0 3.74 0 0 Z M-4 18 C-5.18306728 20.36613456 -5.13354608 21.86780736 -5.125 24.5 C-5.12757813 25.2940625 -5.13015625 26.088125 -5.1328125 26.90625 C-5.13277996 29.05918534 -5.13277996 29.05918534 -4 31 C-2.68 30.67 -1.36 30.34 0 30 C0 26.37 0 22.74 0 19 C-1.32 18.67 -2.64 18.34 -4 18 Z " fill="#FFFFFF" transform="translate(344,119)"/>
<path d="M0 0 C3.96 0 7.92 0 12 0 C12.33 5.94 12.66 11.88 13 18 C13.66 18 14.32 18 15 18 C15.495 9.09 15.495 9.09 16 0 C19.96 0 23.92 0 28 0 C28 6.6 28 13.2 28 20 C28.99 20 29.98 20 31 20 C31.04241723 22.33294775 31.04092937 24.66702567 31 27 C29.42972683 28.57027317 27.85730053 28.16974386 25.6875 28.1875 C24.90761719 28.20167969 24.12773437 28.21585938 23.32421875 28.23046875 C20.7967332 27.97984413 19.18281969 27.26373772 17 26 C16.01 26.66 15.02 27.32 14 28 C7.08461538 28.66923077 7.08461538 28.66923077 3.0625 26.1875 C0.01476768 22.95505663 -0.12348553 20.37511322 -0.09765625 16.11328125 C-0.09443359 15.17548828 -0.09121094 14.23769531 -0.08789062 13.27148438 C-0.07532227 11.80678711 -0.07532227 11.80678711 -0.0625 10.3125 C-0.05798828 9.32443359 -0.05347656 8.33636719 -0.04882812 7.31835938 C-0.0370432 4.87888042 -0.01910783 2.43943259 0 0 Z " fill="#FFFFFF" transform="translate(295,130)"/>
<path d="M0 0 C2.3125 1.5625 2.3125 1.5625 3.3125 2.5625 C3.54951239 5.42127909 3.73469182 8.26133297 3.875 11.125 C3.91818359 11.93130859 3.96136719 12.73761719 4.00585938 13.56835938 C4.11225262 15.56618805 4.21290888 17.5643207 4.3125 19.5625 C5.3025 19.5625 6.2925 19.5625 7.3125 19.5625 C7.3125 21.8725 7.3125 24.1825 7.3125 26.5625 C4.14435235 28.14657382 0.77126393 27.86181611 -2.6875 27.5625 C-4.35416667 26.89583333 -6.02083333 26.22916667 -7.6875 25.5625 C-8.6775 26.2225 -9.6675 26.8825 -10.6875 27.5625 C-14.86077785 27.89905467 -17.67652874 27.90666043 -21.625 26.5625 C-24.27147408 23.9962221 -24.59191656 22.17313971 -24.82421875 18.5625 C-24.6173984 15.53701367 -23.63668477 13.8477511 -21.6875 11.5625 C-18.53121276 9.57341745 -16.13232876 9.34026766 -12.4375 9.4375 C-11.54546875 9.45554688 -10.6534375 9.47359375 -9.734375 9.4921875 C-8.72117187 9.52699219 -8.72117187 9.52699219 -7.6875 9.5625 C-8.0175 8.5725 -8.3475 7.5825 -8.6875 6.5625 C-9.6775 6.8925 -10.6675 7.2225 -11.6875 7.5625 C-13.74895107 7.631491 -15.81251401 7.64717727 -17.875 7.625 C-19.50501953 7.61146484 -19.50501953 7.61146484 -21.16796875 7.59765625 C-21.99941406 7.58605469 -22.83085937 7.57445312 -23.6875 7.5625 C-22.921875 2.78125 -22.921875 2.78125 -20.8125 0.8125 C-14.66241041 -2.80519976 -6.49081716 -2.53031855 0 0 Z M-10.6875 15.5625 C-11.6775 17.0475 -11.6775 17.0475 -12.6875 18.5625 C-11.3675 18.8925 -10.0475 19.2225 -8.6875 19.5625 C-8.3575 18.2425 -8.0275 16.9225 -7.6875 15.5625 C-8.6775 15.5625 -9.6675 15.5625 -10.6875 15.5625 Z " fill="#FFFFFF" transform="translate(459.6875,130.4375)"/>
<path d="M0 0 C2.3125 1.625 2.3125 1.625 3.3125 3.625 C3.5447646 6.33762116 3.73186235 9.03273126 3.875 11.75 C3.91818359 12.50410156 3.96136719 13.25820312 4.00585938 14.03515625 C4.1119832 15.89821888 4.21275001 17.76158524 4.3125 19.625 C5.3025 19.625 6.2925 19.625 7.3125 19.625 C7.3125 21.935 7.3125 24.245 7.3125 26.625 C4.14435235 28.20907382 0.77126393 27.92431611 -2.6875 27.625 C-4.35416667 26.95833333 -6.02083333 26.29166667 -7.6875 25.625 C-8.6775 26.285 -9.6675 26.945 -10.6875 27.625 C-14.86077785 27.96155467 -17.67652874 27.96916043 -21.625 26.625 C-24.27147408 24.0587221 -24.59191656 22.23563971 -24.82421875 18.625 C-24.6173984 15.59951367 -23.63668477 13.9102511 -21.6875 11.625 C-18.53121276 9.63591745 -16.13232876 9.40276766 -12.4375 9.5 C-11.54546875 9.51804688 -10.6534375 9.53609375 -9.734375 9.5546875 C-8.72117187 9.58949219 -8.72117187 9.58949219 -7.6875 9.625 C-8.0175 8.635 -8.3475 7.645 -8.6875 6.625 C-9.6775 6.955 -10.6675 7.285 -11.6875 7.625 C-13.74895107 7.693991 -15.81251401 7.70967727 -17.875 7.6875 C-19.50501953 7.67396484 -19.50501953 7.67396484 -21.16796875 7.66015625 C-21.99941406 7.64855469 -22.83085937 7.63695312 -23.6875 7.625 C-22.921875 2.84375 -22.921875 2.84375 -20.8125 0.875 C-14.66163897 -2.74315355 -6.52358003 -2.43252137 0 0 Z M-10.6875 15.625 C-11.6775 17.11 -11.6775 17.11 -12.6875 18.625 C-11.3675 18.955 -10.0475 19.285 -8.6875 19.625 C-8.3575 18.305 -8.0275 16.985 -7.6875 15.625 C-8.6775 15.625 -9.6675 15.625 -10.6875 15.625 Z " fill="#FFFFFF" transform="translate(513.6875,130.375)"/>
<path d="M0 0 C0.9178125 -0.00515625 1.835625 -0.0103125 2.78125 -0.015625 C6.74080741 0.37122831 9.44510451 1.17880369 12.26953125 4.046875 C14.43256293 7.91973171 14.21201752 11.87266633 14.5 16.25 C8.56 16.25 2.62 16.25 -3.5 16.25 C-2.84 17.57 -2.18 18.89 -1.5 20.25 C0.47536745 19.90213292 0.47536745 19.90213292 2.5 19.25 C2.83 18.59 3.16 17.93 3.5 17.25 C7.13 17.25 10.76 17.25 14.5 17.25 C13.38744102 22.07108893 12.44630932 25.1407866 8.5 28.25 C3.19021614 30.01992795 -2.61342922 30.28489595 -7.9296875 28.37890625 C-11.55075355 26.35614957 -13.21528668 24.83081517 -15.0625 21.0625 C-15.7565994 15.01391947 -15.87581743 9.60854416 -12.75 4.25 C-8.84556898 0.77939465 -5.14699357 -0.02891569 0 0 Z M-2.5 8.25 C-2.83 9.24 -3.16 10.23 -3.5 11.25 C-1.52 11.25 0.46 11.25 2.5 11.25 C2.17 10.26 1.84 9.27 1.5 8.25 C0.18 8.25 -1.14 8.25 -2.5 8.25 Z " fill="#FFFFFF" transform="translate(373.5,128.75)"/>
<path d="M0 0 C3.50115969 1.87956994 5.40988612 3.56849615 6.79296875 7.24609375 C7.49690405 12.42407934 8.02944766 17.87845116 5.5546875 22.6171875 C3.09715632 25.55036987 1.4650993 27.02205023 -2.20703125 28.24609375 C-8.39595975 28.7513124 -13.99199013 29.02699856 -19.20703125 25.24609375 C-22.94358611 20.99415201 -23.19799582 15.71253171 -23.20703125 10.24609375 C-22.20049439 5.71667786 -19.65331069 3.27209521 -16.20703125 0.24609375 C-11.07797512 -1.46359163 -5.16688909 -1.76497273 0 0 Z M-9.20703125 7.24609375 C-10.49315801 8.30588308 -10.49315801 8.30588308 -10.3046875 10.75 C-10.29308594 11.75933594 -10.28148437 12.76867187 -10.26953125 13.80859375 C-10.26050781 14.82050781 -10.25148438 15.83242187 -10.2421875 16.875 C-10.23058594 17.65746094 -10.21898437 18.43992188 -10.20703125 19.24609375 C-8.26099851 19.83679389 -8.26099851 19.83679389 -6.20703125 20.24609375 C-4.92090449 19.18630442 -4.92090449 19.18630442 -5.109375 16.7421875 C-5.12097656 15.73285156 -5.13257813 14.72351563 -5.14453125 13.68359375 C-5.15355469 12.67167969 -5.16257812 11.65976563 -5.171875 10.6171875 C-5.18347656 9.83472656 -5.19507813 9.05226562 -5.20703125 8.24609375 C-7.15306399 7.65539361 -7.15306399 7.65539361 -9.20703125 7.24609375 Z " fill="#FFFFFF" transform="translate(286.20703125,129.75390625)"/>
<path d="M0 0 C2.64 0 5.28 0 8 0 C8 2.97 8 5.94 8 9 C9.98 9 11.96 9 14 9 C14 11.64 14 14.28 14 17 C12.02 17 10.04 17 8 17 C8.33 20.63 8.66 24.26 9 28 C10.65 28 12.3 28 14 28 C14 30.64 14 33.28 14 36 C10.31833802 37.84083099 6.02754194 37.36729156 2 37 C-2.51315789 34.97368421 -2.51315789 34.97368421 -4 32 C-4.0716735 29.44842345 -4.09308442 26.92527029 -4.0625 24.375 C-4.05798828 23.66859375 -4.05347656 22.9621875 -4.04882812 22.234375 C-4.03703875 20.48954725 -4.01910324 18.744763 -4 17 C-4.99 17 -5.98 17 -7 17 C-7 14.36 -7 11.72 -7 9 C-5.68 9 -4.36 9 -3 9 C-2.01 6.03 -1.02 3.06 0 0 Z " fill="#FFFFFF" transform="translate(474,121)"/>
<path d="M0 0 C3.96 0 7.92 0 12 0 C12 12.54 12 25.08 12 38 C8.04 38 4.08 38 0 38 C0 25.46 0 12.92 0 0 Z " fill="#FFFFFF" transform="translate(249,119)"/>
<path d="M0 0 C2.1875 1.625 2.1875 1.625 3.1875 4.625 C3.80681539 9.2698654 3.97907546 13.26427671 1.0625 17.125 C-2.18551889 19.94936425 -3.53444228 20.71056115 -7.8125 20.625 C-11.30316692 19.50088692 -13.93685882 18.35940873 -16.75 16 C-18.43384577 12.23610945 -18.46271076 8.67075583 -17.8125 4.625 C-16.00156027 1.47262343 -14.56142353 0.05858731 -11.4375 -1.75 C-7.079409 -2.78764071 -3.97417689 -1.94293092 0 0 Z " fill="#FFFFFF" transform="translate(195.8125,98.375)"/>
<path d="M0 0 C1.9375 1.0625 1.9375 1.0625 3 3 C3.75912409 9.83211679 3.75912409 9.83211679 1.375 13.5 C-1.74008151 15.4674199 -3.37170989 15.5923739 -7 15 C-9.875 13.5 -9.875 13.5 -12 11 C-12.71773256 8.17537508 -12.71070236 5.82547522 -12 3 C-8.3655827 -1.51548816 -5.40521016 -1.50144727 0 0 Z " fill="#FFFFFF" transform="translate(190,72)"/>
<path d="M0 0 C3.0625 0.3125 3.0625 0.3125 4.9375 1.4375 C6.60913625 4.22356042 6.52626624 6.13238862 6.0625 9.3125 C4.4375 11.25 4.4375 11.25 2.0625 12.3125 C-1.0625 12.1875 -1.0625 12.1875 -3.9375 11.3125 C-5.9375 8.3125 -5.9375 8.3125 -5.6875 5.25 C-4.69210355 1.35136391 -4.04786381 0.43062381 0 0 Z " fill="#FFFFFF" transform="translate(202.9375,82.6875)"/>
<path d="M0 0 C5.56818182 0.56818182 5.56818182 0.56818182 7 2 C7.1875 4.9375 7.1875 4.9375 7 8 C5 10 5 10 2 10.3125 C1.01 10.209375 0.02 10.10625 -1 10 C-3 7 -3 7 -2.75 4.4375 C-2 2 -2 2 0 0 Z " fill="#FFFFFF" transform="translate(200,63)"/>
</svg>
