<?xml version="1.0" encoding="UTF-8"?>
<svg version="1.1" xmlns="http://www.w3.org/2000/svg" width="30" height="31">
<path d="M0 0 C4.3067174 1.68523725 7.94501184 4.79699953 10 9 C10.76353678 13.85951913 10.67422206 18.27698808 8.875 22.875 C2.84386282 29.71028881 2.84386282 29.71028881 -1.66015625 30.41796875 C-8.95051481 30.62402195 -12.38738202 29.32232709 -17.8125 24.5 C-20.73295265 20.82409903 -20.58507581 17.09200065 -20.3515625 12.55078125 C-19.65081506 7.46646927 -16.93477625 4.12189617 -12.94140625 0.94921875 C-8.85292947 -1.04977493 -4.40437771 -0.60703521 0 0 Z M-13 6 C-16.06490964 8.96274598 -16.83419899 11.77207437 -17 16 C-15.55329722 20.49239284 -14.30067906 23.7882222 -10 26 C-6.09272257 27.21559742 -4.248056 27.07988244 -0.3125 25.8125 C4.02431362 23.43952651 5.42138818 21.85982371 6.875 17.1875 C7.03741625 13.04588572 5.97848198 10.61584638 4 7 C-1.20245653 1.61814842 -6.87613531 2.64920611 -13 6 Z " fill="#D8D8D8" transform="translate(20,0)"/>
<path d="M0 0 C1.875 1.4375 1.875 1.4375 3 3 C3 3.66 3 4.32 3 5 C-0.49234244 5.09978121 -3.59437148 4.77842938 -7 4 C-7 5.98 -7 7.96 -7 10 C-3.7 9.67 -0.4 9.34 3 9 C0.71466198 13.69095698 0.71466198 13.69095698 -2.3125 15 C-6.05360073 15 -7.97483236 14.20012192 -11 12 C-12.24964017 8.03055474 -12.41627291 5.9574277 -10.75 2.125 C-7.56407624 -1.74362171 -4.52318878 -1.13079719 0 0 Z " fill="#D8D8D8" transform="translate(19,8)"/>
</svg>
