<?xml version="1.0" encoding="UTF-8"?>
<svg version="1.1" xmlns="http://www.w3.org/2000/svg" width="40" height="40">
<path d="M0 0 C9.9 0 19.8 0 30 0 C30 9.9 30 19.8 30 30 C26.7 30 23.4 30 20 30 C20 25.71 20 21.42 20 17 C20.99 17 21.98 17 23 17 C23 16.34 23 15.68 23 15 C22.01 14.67 21.02 14.34 20 14 C20 12.35 20 10.7 20 9 C21.32 9 22.64 9 24 9 C24 8.34 24 7.68 24 7 C22.02 7.66 20.04 8.32 18 9 C17.67 10.65 17.34 12.3 17 14 C15.68 14 14.36 14 13 14 C13 14.99 13 15.98 13 17 C14.32 17 15.64 17 17 17 C17 21.29 17 25.58 17 30 C11.39 30 5.78 30 0 30 C0 20.1 0 10.2 0 0 Z " fill="#D9D9D9" transform="translate(5,5)"/>
</svg>
