<?xml version="1.0" encoding="UTF-8"?>
<svg version="1.1" xmlns="http://www.w3.org/2000/svg" width="40" height="40">
<path d="M0 0 C1.051875 -0.00515625 2.10375 -0.0103125 3.1875 -0.015625 C4.280625 -0.00015625 5.37375 0.0153125 6.5 0.03125 C8.1396875 0.00804687 8.1396875 0.00804687 9.8125 -0.015625 C10.864375 -0.01046875 11.91625 -0.0053125 13 0 C14.43859375 0.00676758 14.43859375 0.00676758 15.90625 0.01367188 C19.3011717 0.69112237 20.46832431 1.75266926 22.5 4.53125 C23.01757812 7.125 23.01757812 7.125 23.03125 10.03125 C23.03898437 11.6090625 23.03898437 11.6090625 23.046875 13.21875 C23.03140625 14.311875 23.0159375 15.405 23 16.53125 C23.01546875 17.624375 23.0309375 18.7175 23.046875 19.84375 C23.04171875 20.895625 23.0365625 21.9475 23.03125 23.03125 C23.02673828 23.9903125 23.02222656 24.949375 23.01757812 25.9375 C22.34012763 29.3324217 21.27858074 30.49957431 18.5 32.53125 C15.90625 33.04882812 15.90625 33.04882812 13 33.0625 C11.948125 33.06765625 10.89625 33.0728125 9.8125 33.078125 C8.719375 33.06265625 7.62625 33.0471875 6.5 33.03125 C5.406875 33.04671875 4.31375 33.0621875 3.1875 33.078125 C2.135625 33.07296875 1.08375 33.0678125 0 33.0625 C-0.9590625 33.05798828 -1.918125 33.05347656 -2.90625 33.04882812 C-6.3011717 32.37137763 -7.46832431 31.30983074 -9.5 28.53125 C-10.01757812 25.9375 -10.01757812 25.9375 -10.03125 23.03125 C-10.03640625 21.979375 -10.0415625 20.9275 -10.046875 19.84375 C-10.03140625 18.750625 -10.0159375 17.6575 -10 16.53125 C-10.01546875 15.438125 -10.0309375 14.345 -10.046875 13.21875 C-10.03914062 11.6409375 -10.03914062 11.6409375 -10.03125 10.03125 C-10.02673828 9.0721875 -10.02222656 8.113125 -10.01757812 7.125 C-8.88515929 1.45008601 -5.39576194 0.02538329 0 0 Z M1.125 11.15625 C-0.98706506 14.24311432 -1.11195145 15.8595413 -0.5 19.53125 C1 22.03125 1 22.03125 3.5 23.53125 C7.1717087 24.14320145 8.78813568 24.01831506 11.875 21.90625 C13.98706506 18.81938568 14.11195145 17.2029587 13.5 13.53125 C12 11.03125 12 11.03125 9.5 9.53125 C5.8282913 8.91929855 4.21186432 9.04418494 1.125 11.15625 Z " fill="#D8D8D8" transform="translate(13.5,3.46875)"/>
<path d="M0 0 C1.875 1.125 1.875 1.125 3 3 C3.39365568 6.14924548 3.52854531 8.11909116 1.875 10.875 C-0.88090884 12.52854531 -2.85075452 12.39365568 -6 12 C-7.875 10.875 -7.875 10.875 -9 9 C-9.39365568 5.85075452 -9.52854531 3.88090884 -7.875 1.125 C-5.11909116 -0.52854531 -3.14924548 -0.39365568 0 0 Z " fill="#DADADA" transform="translate(23,14)"/>
</svg>
