<?xml version="1.0" encoding="UTF-8"?>
<svg version="1.1" xmlns="http://www.w3.org/2000/svg" width="40" height="40">
<path d="M0 0 C3.0036991 3.45586885 2.23394619 7.37297636 2.06640625 11.77734375 C2.04835938 12.67001953 2.0303125 13.56269531 2.01171875 14.48242188 C1.96458384 16.68597879 1.89881282 18.88736976 1.81640625 21.08984375 C-0.49359375 21.08984375 -2.80359375 21.08984375 -5.18359375 21.08984375 C-5.51359375 16.13984375 -5.84359375 11.18984375 -6.18359375 6.08984375 C-8.16359375 7.07984375 -8.16359375 7.07984375 -10.18359375 8.08984375 C-10.89031581 11.19915316 -10.89031581 11.19915316 -10.93359375 14.71484375 C-10.9903125 15.90335938 -11.04703125 17.091875 -11.10546875 18.31640625 C-11.13125 19.23164062 -11.15703125 20.146875 -11.18359375 21.08984375 C-13.49359375 21.08984375 -15.80359375 21.08984375 -18.18359375 21.08984375 C-18.18359375 14.15984375 -18.18359375 7.22984375 -18.18359375 0.08984375 C-3.65686182 -1.52423758 -3.65686182 -1.52423758 0 0 Z " fill="#D8D8D8" transform="translate(34.18359375,12.91015625)"/>
<path d="M0 0 C2.31 0 4.62 0 7 0 C7 6.93 7 13.86 7 21 C4.69 21 2.38 21 0 21 C0 14.07 0 7.14 0 0 Z " fill="#D8D8D8" transform="translate(5,13)"/>
<path d="M0 0 C2.31 0 4.62 0 7 0 C7.04254356 1.99954746 7.04080783 4.00041636 7 6 C6 7 6 7 3.5 7.125 C1 7 1 7 0 6 C-0.04080783 4.00041636 -0.04254356 1.99954746 0 0 Z " fill="#D6D6D6" transform="translate(5,4)"/>
</svg>
