<svg width="27" height="28" viewBox="0 0 27 28" fill="none" xmlns="http://www.w3.org/2000/svg">
<path d="M19.5146 18.5969C19.2731 18.3446 18.986 18.1443 18.67 18.0077C18.3539 17.8711 18.0151 17.8008 17.6729 17.8008C17.3306 17.8008 16.9918 17.8711 16.6757 18.0077C16.3597 18.1443 16.0727 18.3446 15.8311 18.5969L14.5744 19.9052C13.1594 18.9703 11.8484 17.8749 10.6655 16.639C9.48077 15.4053 8.42873 14.0408 7.52795 12.5699L8.78469 11.2616C9.02709 11.0101 9.21942 10.7113 9.35066 10.3823C9.48189 10.0533 9.54945 9.70055 9.54945 9.3443C9.54945 8.98806 9.48189 8.63531 9.35066 8.3063C9.21942 7.97729 9.02709 7.67848 8.78469 7.42702L6.33188 4.88267C6.09373 4.62949 5.80911 4.42874 5.49495 4.29234C5.18079 4.15594 4.84349 4.08669 4.50311 4.08869C4.1603 4.08781 3.82072 4.15751 3.50389 4.29377C3.18706 4.43004 2.89925 4.63017 2.657 4.88267L1.47827 6.10071C0.916434 6.72955 0.497117 7.48146 0.251137 8.30118C0.00515758 9.1209 -0.0612316 9.98759 0.0568498 10.8375C0.334199 14.221 2.46632 18.2901 5.75118 21.7187C9.03603 25.1472 12.9883 27.3578 16.2384 27.6826C16.481 27.6961 16.724 27.6961 16.9665 27.6826C17.6661 27.7131 18.3646 27.598 19.0209 27.3439C19.6773 27.0898 20.2783 26.7019 20.7887 26.2029L21.9588 24.9758C22.2013 24.7236 22.3936 24.424 22.5245 24.0942C22.6554 23.7644 22.7223 23.4109 22.7215 23.054C22.7234 22.6997 22.6569 22.3486 22.5259 22.0215C22.3948 21.6945 22.202 21.3982 21.9588 21.1503L19.5146 18.5969ZM20.7367 23.7036L19.558 24.9217C19.1221 25.2998 18.6134 25.576 18.0661 25.7317C17.5188 25.8874 16.9458 25.9188 16.3858 25.8239C13.569 25.5713 9.98075 23.4961 7.01658 20.4104C4.05241 17.3247 2.05897 13.6165 1.79028 10.6841C1.69682 10.1012 1.7259 9.50411 1.87553 8.93401C2.02516 8.36391 2.29178 7.83437 2.657 7.3819L3.87907 6.15484C3.96006 6.07122 4.0561 6.00506 4.1617 5.96016C4.2673 5.91526 4.38037 5.8925 4.49444 5.89319C4.6085 5.8925 4.72158 5.91526 4.82718 5.96016C4.93278 6.00506 5.02882 6.07122 5.10981 6.15484L7.56262 8.73528C7.72404 8.90433 7.81465 9.13301 7.81465 9.37137C7.81465 9.60973 7.72404 9.83841 7.56262 10.0075L5.82918 11.812C5.69354 11.9525 5.60638 12.1358 5.58129 12.3332C5.55621 12.5307 5.59461 12.7313 5.69051 12.9037C6.72831 14.7429 7.98968 16.435 9.44339 17.9382C10.8874 19.4516 12.5129 20.7647 14.2797 21.845C14.4453 21.9448 14.6379 21.9848 14.8276 21.9587C15.0173 21.9326 15.1934 21.8418 15.3284 21.7006L17.0618 19.8961C17.2242 19.7281 17.4439 19.6338 17.6729 19.6338C17.9018 19.6338 18.1215 19.7281 18.2839 19.8961L20.7367 22.4495C20.817 22.5338 20.8806 22.6338 20.9237 22.7437C20.9669 22.8537 20.9887 22.9714 20.9881 23.0901C20.9826 23.3205 20.8927 23.5401 20.7367 23.7036ZM22.2448 4.5759C21.0403 3.31723 19.6084 2.31923 18.0315 1.63942C16.4547 0.95961 14.7643 0.611452 13.0576 0.615017C12.8277 0.615017 12.6073 0.710076 12.4447 0.879281C12.2822 1.04849 12.1909 1.27798 12.1909 1.51727C12.1909 1.75656 12.2822 1.98605 12.4447 2.15526C12.6073 2.32446 12.8277 2.41952 13.0576 2.41952C14.5453 2.41947 16.0183 2.72611 17.3915 3.32176C18.7648 3.9174 20.0112 4.79026 21.0587 5.88996C22.1062 6.98966 22.9342 8.29442 23.4948 9.72896C24.0554 11.1635 24.3375 12.6994 24.3249 14.248C24.3249 14.4873 24.4162 14.7168 24.5788 14.886C24.7413 15.0552 24.9618 15.1503 25.1916 15.1503C25.4215 15.1503 25.642 15.0552 25.8045 14.886C25.967 14.7168 26.0583 14.4873 26.0583 14.248C26.0749 12.4525 25.7461 10.6717 25.0911 9.01053C24.4362 7.34938 23.4684 5.84155 22.2448 4.5759Z" fill="#5999D4"/>
</svg>
