<?xml version="1.0" encoding="UTF-8"?>
<svg version="1.1" xmlns="http://www.w3.org/2000/svg" width="40" height="40">
<path d="M0 0 C3.75071615 -0.41382683 7.26652354 -0.62399396 11 0 C13.52724468 2.13637845 14.44669538 4.00051522 16 7 C18.92235384 5.85193242 20.00774724 4.98915386 21.875 2.375 C24 0 24 0 27.25 -0.3125 C28.61125 -0.1578125 28.61125 -0.1578125 30 0 C29.0843974 1.22995949 28.16745797 2.45892386 27.25 3.6875 C26.73953125 4.37199219 26.2290625 5.05648438 25.703125 5.76171875 C23.84199528 8.20765299 21.92810389 10.60663626 20 13 C20.33322266 13.4439209 20.66644531 13.8878418 21.00976562 14.34521484 C22.51145718 16.35149576 24.00579094 18.36314112 25.5 20.375 C26.02464844 21.07367187 26.54929687 21.77234375 27.08984375 22.4921875 C27.58613281 23.1625 28.08242188 23.8328125 28.59375 24.5234375 C29.05458984 25.14138184 29.51542969 25.75932617 29.99023438 26.39599609 C31 28 31 28 31 30 C27.19390478 30.55749315 23.78428446 30.77613341 20 30 C17.00708564 27.37992309 14.99144887 24.42556392 13 21 C12.22076172 21.97453125 12.22076172 21.97453125 11.42578125 22.96875 C10.37970703 24.22171875 10.37970703 24.22171875 9.3125 25.5 C8.62800781 26.3353125 7.94351562 27.170625 7.23828125 28.03125 C5 30 5 30 2.23046875 30.28125 C1.12638672 30.14203125 1.12638672 30.14203125 0 30 C1.51553404 26.52224821 3.5773456 24.0442016 6.125 21.25 C6.84945313 20.45078125 7.57390625 19.6515625 8.3203125 18.828125 C8.87460938 18.22484375 9.42890625 17.6215625 10 17 C8.89789095 15.24870343 7.79322568 13.49901536 6.6875 11.75 C6.07261719 10.77546875 5.45773438 9.8009375 4.82421875 8.796875 C3.08345292 6.0454842 3.08345292 6.0454842 1.26953125 3.765625 C0 2 0 2 0 0 Z M8 4 C9 6 9 6 9 6 Z M13 11 C14 13 14 13 14 13 Z M15 14 C16 16 16 16 16 16 Z M17 17 C18 19 18 19 18 19 Z M22 24 C23 26 23 26 23 26 Z " fill="#D8D8D8" transform="translate(5,5)"/>
</svg>
