<?xml version="1.0" encoding="UTF-8"?>
<svg version="1.1" xmlns="http://www.w3.org/2000/svg" width="40" height="40">
<path d="M0 0 C1.32161133 -0.01836914 1.32161133 -0.01836914 2.66992188 -0.03710938 C7.51536238 -0.04799801 11.55657032 0.17781305 16.0625 2.1875 C19.04898563 5.17398563 18.35499394 7.95297493 18.38476562 12.03710938 C18.38154297 13.05611328 18.37832031 14.07511719 18.375 15.125 C18.39111328 16.14013672 18.40722656 17.15527344 18.42382812 18.20117188 C18.42447266 19.17505859 18.42511719 20.14894531 18.42578125 21.15234375 C18.42876221 22.0455835 18.43174316 22.93882324 18.43481445 23.85913086 C17.99011186 26.64019879 17.27248871 27.49877306 15.0625 29.1875 C10.30638609 30.74290209 5.08055423 30.37139071 0.125 30.375 C-0.75607422 30.38724609 -1.63714844 30.39949219 -2.54492188 30.41210938 C-7.39036238 30.42299801 -11.43157032 30.19718695 -15.9375 28.1875 C-18.92398563 25.20101437 -18.22999394 22.42202507 -18.25976562 18.33789062 C-18.25654297 17.31888672 -18.25332031 16.29988281 -18.25 15.25 C-18.26611328 14.23486328 -18.28222656 13.21972656 -18.29882812 12.17382812 C-18.29947266 11.19994141 -18.30011719 10.22605469 -18.30078125 9.22265625 C-18.30376221 8.3294165 -18.30674316 7.43617676 -18.30981445 6.51586914 C-17.86511186 3.73480121 -17.14748871 2.87622694 -14.9375 1.1875 C-10.18138609 -0.36790209 -4.95555423 0.00360929 0 0 Z M-3.9375 10.1875 C-3.9375 13.4875 -3.9375 16.7875 -3.9375 20.1875 C-1.2975 18.8675 1.3425 17.5475 4.0625 16.1875 C4.0625 15.5275 4.0625 14.8675 4.0625 14.1875 C1.4225 12.8675 -1.2175 11.5475 -3.9375 10.1875 Z " fill="#D9D9D9" transform="translate(19.9375,4.8125)"/>
</svg>
