<?xml version="1.0" standalone="no"?>
<!DOCTYPE svg PUBLIC "-//W3C//DTD SVG 20010904//EN"
 "http://www.w3.org/TR/2001/REC-SVG-20010904/DTD/svg10.dtd">
<svg version="1.0" xmlns="http://www.w3.org/2000/svg"
 width="803.000000pt" height="673.000000pt" viewBox="0 0 803.000000 673.000000"
 preserveAspectRatio="xMidYMid meet">
<metadata>
Created by potrace 1.16, written by Peter Selinger 2001-2019
</metadata>
<g transform="translate(0.000000,673.000000) scale(0.100000,-0.100000)"
fill="#000000" stroke="none">
<path d="M0 3405 l0 -3325 3995 0 3995 0 0 3325 0 3325 -675 0 -675 0 -2 -32
c-1 -18 -3 -44 -4 -58 -1 -14 -3 -31 -3 -38 -1 -9 -10 -7 -31 8 -17 12 -28 25
-25 30 6 10 -15 73 -29 82 -23 16 -56 9 -56 -12 0 -15 -7 -20 -30 -20 -16 0
-41 6 -56 12 l-28 13 30 6 c16 4 -1419 7 -3189 8 l-3217 1 0 -3325z m3300
1647 l5 -387 34 -5 c34 -5 47 -23 46 -65 0 -17 -7 -20 -40 -18 l-40 1 0 -104
0 -103 45 -10 c30 -6 47 -6 51 1 9 15 44 5 44 -12 0 -9 -10 -15 -25 -15 -21 0
-26 -6 -30 -35 -5 -33 -7 -35 -44 -35 l-38 0 1 -182 2 -182 -26 -3 c-21 -2
-30 -11 -39 -39 -14 -40 -30 -458 -20 -496 7 -24 38 -31 50 -12 21 35 25 -41
24 -475 -1 -412 1 -466 15 -466 8 0 15 -4 15 -10 0 -5 -6 -10 -14 -10 -10 0
-17 -16 -21 -45 -5 -31 -13 -46 -26 -50 -10 -4 -19 -12 -19 -19 0 -6 -9 -12
-19 -12 -18 0 -19 13 -25 221 -4 121 -5 814 -4 1541 3 1242 4 1321 21 1338 9
10 17 22 17 27 0 6 5 7 10 4 6 -3 10 3 10 15 0 12 5 18 10 15 6 -3 10 2 10 11
0 10 3 14 8 10 4 -4 9 -182 12 -394z m-167 343 c-3 -10 0 -15 8 -13 17 4 17
12 26 -884 5 -519 3 -688 -5 -688 -16 0 -17 -331 -1 -347 16 -16 8 -1241 -7
-1251 -6 -4 -14 -17 -18 -29 -4 -13 -10 -22 -14 -22 -28 4 -42 -4 -44 -23 -14
-153 -25 2808 -12 3083 7 130 8 138 28 141 13 2 22 12 24 26 2 12 7 22 12 22
5 0 7 -7 3 -15z m-845 -190 c85 -14 158 -28 163 -31 14 -8 11 -111 -4 -117 -7
-2 -39 -1 -72 4 -149 21 -211 32 -220 40 -5 4 -21 9 -35 11 -22 3 -25 8 -28
52 -4 60 2 76 25 70 10 -2 87 -15 171 -29z m2038 -72 c-6 -17 -5 -17 8 0 12
15 14 10 19 -45 4 -35 9 -253 13 -485 l7 -423 -47 0 -47 0 3 303 c5 610 7 655
26 660 9 3 19 5 21 6 2 0 0 -7 -3 -16z m134 -23 c7 22 9 -74 12 -527 l0 -92
35 -7 c32 -6 34 -8 31 -43 -3 -33 -6 -36 -33 -36 -27 0 -30 -3 -31 -35 -2
-149 -2 -147 -33 -153 -16 -4 -31 -14 -34 -24 -3 -10 -5 159 -6 375 -1 307 2
392 12 393 10 0 10 2 0 6 -9 3 -13 29 -13 79 0 48 4 73 10 69 6 -3 11 0 11 7
1 7 5 0 9 -17 l8 -30 2 35 3 35 5 -30 5 -30 7 25z m965 10 c6 -19 -1 -118 -12
-155 -12 -42 -67 -107 -119 -142 -30 -20 -54 -41 -54 -46 0 -16 -62 -77 -77
-77 -8 0 -16 13 -19 30 -5 22 -17 34 -48 49 -22 11 -64 42 -92 68 -42 39 -54
59 -67 107 -9 33 -14 62 -12 65 3 3 33 7 66 9 l61 5 -4 -34 c-3 -19 -8 -41
-12 -50 -5 -12 -1 -18 15 -22 19 -5 20 -8 9 -22 -9 -11 -10 -19 -3 -26 15 -15
155 2 161 19 2 7 -5 12 -17 12 -12 0 -21 5 -21 10 0 10 14 14 38 11 19 -3 14
24 -8 44 -11 10 -20 28 -20 41 0 18 7 23 40 28 22 3 58 9 81 12 29 4 43 12 49
28 9 26 37 56 50 56 5 0 11 -9 15 -20z m-1800 -145 c50 -9 97 -18 106 -21 19
-5 33 -64 24 -94 -8 -25 -32 -25 -123 0 -39 11 -89 20 -111 20 -65 0 -71 6
-71 67 l0 56 43 -6 c23 -3 83 -13 132 -22z m1103 -206 l112 -21 0 -50 0 -49
-32 5 c-18 3 -75 13 -125 22 l-93 16 0 49 c0 32 4 49 13 49 6 0 63 -9 125 -21z
m533 -125 c8 -10 19 -38 25 -63 6 -25 15 -54 19 -64 5 -13 0 -20 -22 -30 -43
-18 -123 -71 -123 -81 0 -4 10 -5 23 -2 46 14 87 18 87 10 -1 -5 -11 -22 -24
-37 l-23 -28 -37 22 c-28 16 -40 19 -49 10 -6 -6 -7 -11 -2 -11 4 0 -2 -9 -15
-20 l-23 -20 29 -10 c21 -8 34 -8 51 1 13 7 26 9 30 5 9 -9 -34 -96 -47 -96
-6 0 -9 4 -5 9 3 5 0 13 -6 17 -7 4 -9 3 -6 -3 8 -13 -15 -23 -49 -23 -21 0
-24 4 -19 20 4 12 8 54 11 94 7 144 35 224 97 278 47 42 58 45 78 22z m-2645
-14 c59 0 73 -3 78 -17 4 -10 1 -22 -7 -28 -12 -9 -12 -12 0 -24 21 -19 10
-36 -23 -35 -32 1 -187 22 -222 31 -23 5 -23 5 -2 20 11 8 24 12 28 9 16 -10
182 -16 182 -7 0 10 -124 40 -178 44 -18 1 -32 6 -32 11 0 5 24 6 53 2 28 -3
84 -6 123 -6z m-623 -117 c4 -2 7 -25 7 -50 l0 -45 -57 7 c-103 12 -103 12
-103 62 l0 44 73 -7 c39 -3 75 -9 80 -11z m3655 -32 c-31 -40 -54 -51 -116
-55 -29 -3 -60 -10 -68 -16 -7 -7 -25 -9 -39 -6 -14 4 -25 2 -25 -4 0 -5 -5
-10 -12 -10 -9 0 -9 3 0 12 20 20 14 38 -12 38 -27 0 -38 11 -28 26 11 16 132
35 205 32 41 -2 70 1 75 8 9 15 36 23 40 13 2 -5 -7 -22 -20 -38z m800 -2 l62
-13 0 -39 0 -40 -65 7 c-97 10 -115 19 -115 59 0 40 8 50 35 44 11 -3 48 -11
83 -18z m-1084 -125 c-6 -23 -4 -23 63 -25 176 -4 163 -6 190 26 15 18 23 23
19 12 -3 -10 -6 -73 -6 -139 0 -104 -2 -119 -15 -114 -9 3 -18 -1 -21 -9 -4
-8 -11 -15 -16 -15 -6 0 -21 -11 -34 -25 -23 -25 -64 -34 -64 -15 0 5 -11 12
-24 16 -20 5 -27 17 -41 75 -10 39 -24 76 -32 84 -10 10 -36 15 -79 15 -63 0
-65 1 -59 23 4 12 18 31 31 42 13 12 24 25 24 31 0 5 7 19 15 31 21 30 57 20
49 -13z m659 -120 c-3 -12 0 -25 6 -28 7 -5 11 8 12 36 l2 43 8 -50 c12 -69
40 -519 37 -580 l-3 -50 -27 70 c-26 69 -30 103 -43 330 l-4 90 12 -55 c12
-51 14 -53 20 -25 9 42 7 112 -3 138 -9 24 -15 15 -23 -33 -2 -14 -4 22 -5 80
0 64 3 95 8 80 4 -14 5 -35 3 -46z m-1703 -379 c12 -44 26 -98 32 -120 6 -25
10 -273 11 -665 2 -648 -5 -784 -38 -803 -8 -4 -15 -18 -15 -29 0 -12 -3 -19
-6 -15 -9 9 -11 91 -18 957 -5 506 -4 780 3 770 5 -8 19 -51 31 -95z m-706
-17 c9 -9 11 -20 5 -35 -9 -25 -7 -28 38 -37 18 -4 34 -3 38 3 9 16 51 13 65
-4 7 -8 9 -15 4 -15 -4 0 -3 -5 3 -11 9 -9 8 -15 -2 -26 -11 -11 -36 -13 -110
-9 -52 2 -100 8 -106 12 -7 4 -33 8 -58 10 -25 2 -46 3 -46 4 0 1 -8 3 -18 5
-25 5 -29 9 -22 26 5 15 32 20 111 23 46 1 74 19 74 47 0 22 6 24 24 7z m801
-484 c-1 -26 4 -43 18 -57 14 -14 22 -17 25 -9 2 7 8 12 14 12 7 0 8 -66 4
-207 -6 -180 -9 -210 -24 -221 -14 -10 -18 -10 -23 5 -6 15 -8 14 -13 -7 -3
-14 -7 -38 -9 -55 -2 -16 -5 109 -6 278 0 178 3 306 8 303 5 -3 8 -22 6 -42z"/>
</g>
</svg>
